#!OML:ASF C:\ViconDB\ViconDB\414\Spring2016\042216\male.ASF
:FULLY-SPECIFIED
:DEGREES
591
root 47.2059 17.604 12.5568 187.673 85.9435 185.146
lowerback -5.12321 -1.61562 3.25985
upperback -1.11304 -2.30063 -0.282615
thorax 1.58421 -1.12838 -2.2625
lowerneck -1.16231 11.4092 1.45964
upperneck -1.26347 15.34 -8.86275
head 0.661752 7.70133 -2.80257
rclavicle 3.11999e-014 -8.84592e-015
rhumerus -37.4923 -14.2579 -84.073
rradius 26.915
rwrist 38.5917
rhand 14.3367 -17.8847
rfingers 7.12502
rthumb 39.2269 -43.3394
lclavicle 3.11999e-014 -8.84592e-015
lhumerus -34.9657 3.12814 95.3013
lradius 42.3507
lwrist -5.60792
lhand -6.51234 13.3315
lfingers 7.12502
lthumb 19.3398 42.3898
rfemur -6.71986 10.9407 23.6016
rtibia 28.2104
rfoot -22.2191 -11.9393
rtoes -0.17777
lfemur -7.03959 -3.86702 -21.4548
ltibia 31.0322
lfoot -23.8744 17.1785
ltoes -22.821
592
root 47.2092 17.6015 12.558 187.831 85.95 185.321
lowerback -5.17237 -1.62478 3.23976
upperback -1.11048 -2.3133 -0.289693
thorax 1.61402 -1.13413 -2.26106
lowerneck -1.04532 11.4837 1.46835
upperneck -1.30677 15.4368 -8.89373
head 0.637005 7.75353 -2.8201
rclavicle -1.75583e-014 -8.74653e-015
rhumerus -37.4291 -14.1384 -84.2143
rradius 26.9663
rwrist 38.4444
rhand 14.4966 -17.7822
rfingers 7.12502
rthumb 39.3776 -43.193
lclavicle -1.75583e-014 -8.74653e-015
lhumerus -34.8837 3.07855 95.2516
lradius 42.1394
lwrist -5.68859
lhand -6.50544 13.1578
lfingers 7.12502
lthumb 19.3464 42.2154
rfemur -6.6898 10.8171 23.612
rtibia 28.2112
rfoot -22.1606 -11.8673
rtoes -0.507458
lfemur -6.99319 -3.85259 -21.4411
ltibia 31.0203
lfoot -24.2883 17.1015
ltoes -22.0696
593
root 47.2122 17.5987 12.56 187.386 85.9886 184.897
lowerback -5.19365 -1.6197 3.17577
upperback -1.09908 -2.30398 -0.300677
thorax 1.64033 -1.12917 -2.23697
lowerneck -0.984725 11.589 1.52612
upperneck -1.3495 15.5761 -8.95799
head 0.631478 7.82547 -2.85059
rclavicle -1.2424e-016 3.97569e-016
rhumerus -37.3298 -14.1356 -84.2796
rradius 27.0309
rwrist 38.4435
rhand 14.7172 -17.641
rfingers 7.12502
rthumb 39.5854 -42.9908
lclavicle -1.2424e-016 3.97569e-016
lhumerus -34.8669 3.10534 95.207
lradius 41.9846
lwrist -5.82951
lhand -6.36119 13.2863
lfingers 7.12502
lthumb 19.4851 42.33
rfemur -6.65631 10.8211 23.5962
rtibia 28.2142
rfoot -22.1849 -11.8927
rtoes -0.482316
lfemur -6.94021 -3.85221 -21.4714
ltibia 31.0109
lfoot -24.7139 17.0157
ltoes -21.2356
594
root 47.2136 17.5974 12.5611 187.692 85.9982 185.244
lowerback -5.16949 -1.61734 3.19561
upperback -1.08238 -2.30168 -0.301345
thorax 1.64337 -1.12783 -2.24814
lowerneck -0.972673 11.6719 1.52103
upperneck -1.35331 15.6867 -8.94951
head 0.633148 7.88095 -2.84438
rclavicle 1.90709e-015 -6.31141e-015
rhumerus -37.2347 -14.1528 -84.3708
rradius 27.1709
rwrist 38.5729
rhand 14.8426 -17.5182
rfingers 7.12502
rthumb 39.7035 -42.833
lclavicle 1.90709e-015 -6.31141e-015
lhumerus -34.956 3.38774 95.0793
lradius 41.9708
lwrist -6.23889
lhand -6.04659 13.4485
lfingers 7.12502
lthumb 19.7876 42.4613
rfemur -6.60598 10.7078 23.6132
rtibia 28.2042
rfoot -22.2229 -11.7155
rtoes -0.212428
lfemur -6.89061 -3.81679 -21.4432
ltibia 31.011
lfoot -24.9236 16.9454
ltoes -20.9288
595
root 47.2144 17.5968 12.563 187.824 86.0193 185.384
lowerback -5.15906 -1.58506 3.21879
upperback -1.05638 -2.26025 -0.313037
thorax 1.66548 -1.10652 -2.27088
lowerneck -1.04822 11.7177 1.46347
upperneck -1.34478 15.7507 -8.95155
head 0.647481 7.91136 -2.82829
rclavicle -2.29938e-014 1.44119e-015
rhumerus -37.0792 -14.0428 -84.5552
rradius 27.3621
rwrist 38.3651
rhand 14.7482 -17.5075
rfingers 7.12502
rthumb 39.6146 -42.8486
lclavicle -2.29938e-014 1.44119e-015
lhumerus -34.8594 3.39774 94.9952
lradius 41.6036
lwrist -6.46712
lhand -6.18963 13.1983
lfingers 7.12502
lthumb 19.6501 42.2252
rfemur -6.59771 10.6383 23.6151
rtibia 28.1893
rfoot -22.2439 -11.6077
rtoes -0.0350007
lfemur -6.87667 -3.81891 -21.4363
ltibia 31.0109
lfoot -24.2254 17.214
ltoes -22.1367
